<svg xmlns="http://www.w3.org/2000/svg" viewBox="2369.918 38.03 200.158 24.378"><defs><style>.a{fill:#e8e5c8;}</style></defs><path class="a" d="M18.87-2.686q0,.884-.1,2.924h-.374q-.2,0-.986-.068T15.64.1L1.5,0Q.918,0,.918-.306q0-.238.918-.306A3.325,3.325,0,0,0,3.383-.9q.255-.221.255-1.275V-21.284q0-1.258-.255-1.462a4.275,4.275,0,0,0-1.819-.2q-.646,0-.646-.374,0-.306.408-.306h.306q1.122.1,4.454.1.306,0,1.19-.051t1.462-.051h.374q.612,0,.612.34a.237.237,0,0,1-.187.255,8.21,8.21,0,0,1-1.173.085q-.986.034-1.173.323A4.656,4.656,0,0,0,7-20.842V-.782q.918.034,2.55.034a26.334,26.334,0,0,0,5.61-.408,3.172,3.172,0,0,0,2.21-1.53,7.56,7.56,0,0,0,.68-3.026q.034-.442.408-.442.442,0,.408.51l-.034.85v.306a3.362,3.362,0,0,1,.034.476Zm23.358-8.976a12.607,12.607,0,0,1-3.043,8.568,9.516,9.516,0,0,1-7.463,3.5,10.192,10.192,0,0,1-7.888-3.553,12.613,12.613,0,0,1-3.2-8.755,12.413,12.413,0,0,1,3.077-8.687,10.165,10.165,0,0,1,7.871-3.383,9.632,9.632,0,0,1,7.582,3.536A12.931,12.931,0,0,1,42.228-11.662Zm-3.808.17q0-6.222-2.55-9.69a5.212,5.212,0,0,0-4.454-2.176A5.374,5.374,0,0,0,27.2-21.692q-2.754,3.06-2.754,9.962,0,5.474,1.921,8.5A6.048,6.048,0,0,0,31.756-.2,5.268,5.268,0,0,0,36.618-3.06,17,17,0,0,0,38.42-11.492Zm28.288-.17a12.607,12.607,0,0,1-3.043,8.568A9.516,9.516,0,0,1,56.2.408a10.192,10.192,0,0,1-7.888-3.553,12.613,12.613,0,0,1-3.2-8.755,12.413,12.413,0,0,1,3.077-8.687,10.165,10.165,0,0,1,7.871-3.383,9.632,9.632,0,0,1,7.582,3.536A12.931,12.931,0,0,1,66.708-11.662Zm-3.808.17q0-6.222-2.55-9.69A5.212,5.212,0,0,0,55.9-23.358a5.374,5.374,0,0,0-4.216,1.666q-2.754,3.06-2.754,9.962,0,5.474,1.921,8.5A6.048,6.048,0,0,0,56.236-.2,5.268,5.268,0,0,0,61.1-3.06,17,17,0,0,0,62.9-11.492Zm24.65-6.086q0,.442-.408.442t-.578-.884l-.136-1.224a5.908,5.908,0,0,0-.782-2.074A3.346,3.346,0,0,0,83.3-22.746a7.346,7.346,0,0,0-1.7-.17q-1.6.068-1.938.1v20.5q0,1.224.646,1.53a6.262,6.262,0,0,0,1.9.2q.408.034.408.306,0,.306-.544.306A2.929,2.929,0,0,1,81.6,0q-2.04-.068-2.89-.068-1.122,0-2.108.034T74.086,0Q73.3,0,73.3-.272q0-.306,1.462-.34,1.054,0,1.36-.442a3.358,3.358,0,0,0,.17-1.394V-22.814a16.835,16.835,0,0,0-4.182.34q-2.142.782-2.516,4.182-.1,1.02-.476,1.02-.408,0-.408-.714,0-.374.034-.748l.068-.782q.1-1.564.306-4.114h1.53l6.936.1q1.224.034,3.808-.034l5.644-.1q.068,1.9.442,5.644a1.217,1.217,0,0,0,.034.255A1.331,1.331,0,0,1,87.55-17.578Zm24.242,8.33q0,.2-1.326.272-.85.034-.952.272,0,.034-.136.544l-.238.986a10.878,10.878,0,0,1-1.87,3.944q.2.34.646,1.02A3.666,3.666,0,0,0,109.038-.8a5.4,5.4,0,0,0,2.04.289q.612,0,.612.306,0,.2-.374.2-.306,0-1.241-.034t-1.751-.034q-1.156,0-1.9.068-.17-.238-.85-1.428a7.273,7.273,0,0,1-5.032,1.7,6.368,6.368,0,0,1-4-1.19A3.726,3.726,0,0,1,95-4.012q0-3.06,4.25-4.964-1.054-1.054-1.224-1.19a2.794,2.794,0,0,1-.918-2.006,3.226,3.226,0,0,1,1.173-2.567,4.518,4.518,0,0,1,3.043-1,4.647,4.647,0,0,1,2.873.833,2.554,2.554,0,0,1,1.105,2.125q0,2.176-3.366,3.366l1.122,1.224q1.394,1.5,3.638,4.216A8.546,8.546,0,0,0,108.256-8.5q0-.544-.442-.544h-.17A4.8,4.8,0,0,1,107-9.01q-1.122,0-1.122-.272,0-.17.476-.2t3.3-.034h1.6Q111.792-9.52,111.792-9.248Zm-8.7-3.3a3.294,3.294,0,0,0-.544-1.955,1.647,1.647,0,0,0-1.394-.765,2.014,2.014,0,0,0-1.462.561,1.925,1.925,0,0,0-.578,1.445q0,1.6,2.448,3.468A2.743,2.743,0,0,0,103.088-12.546Zm2.074,10.472a41.916,41.916,0,0,0-5.508-6.46,4.2,4.2,0,0,0-1.938,3.6A4.548,4.548,0,0,0,98.8-1.819a3.5,3.5,0,0,0,2.754,1.241A5.062,5.062,0,0,0,105.162-2.074Zm32.028-.612q0,.884-.1,2.924h-.374q-.2,0-.986-.068T133.96.1L119.816,0q-.578,0-.578-.306,0-.238.918-.306A3.325,3.325,0,0,0,121.7-.9q.255-.221.255-1.275V-21.284q0-1.258-.255-1.462a4.275,4.275,0,0,0-1.819-.2q-.646,0-.646-.374,0-.306.408-.306h.306q1.122.1,4.454.1.306,0,1.19-.051t1.462-.051h.374q.612,0,.612.34a.237.237,0,0,1-.187.255,8.21,8.21,0,0,1-1.173.085q-.986.034-1.173.323a4.655,4.655,0,0,0-.187,1.785V-.782q.918.034,2.55.034a26.334,26.334,0,0,0,5.61-.408,3.172,3.172,0,0,0,2.21-1.53,7.56,7.56,0,0,0,.68-3.026q.034-.442.408-.442.442,0,.408.51l-.034.85v.306a3.363,3.363,0,0,1,.034.476Zm23.358-8.976a12.607,12.607,0,0,1-3.043,8.568,9.516,9.516,0,0,1-7.463,3.5,10.192,10.192,0,0,1-7.888-3.553,12.613,12.613,0,0,1-3.2-8.755,12.413,12.413,0,0,1,3.077-8.687,10.165,10.165,0,0,1,7.871-3.383,9.632,9.632,0,0,1,7.582,3.536A12.931,12.931,0,0,1,160.548-11.662Zm-3.808.17q0-6.222-2.55-9.69a5.212,5.212,0,0,0-4.454-2.176,5.374,5.374,0,0,0-4.216,1.666q-2.754,3.06-2.754,9.962,0,5.474,1.921,8.5A6.048,6.048,0,0,0,150.076-.2a5.268,5.268,0,0,0,4.862-2.856A17,17,0,0,0,156.74-11.492ZM182.172-1.02q0,1.428-2.38,1.428a4.74,4.74,0,0,1-4.148-2.21,5.241,5.241,0,0,1-.833-1.836q-.187-.884-.561-4.488a4.138,4.138,0,0,0-1.394-3.077,6.8,6.8,0,0,0-3.876-.969v10.71q0,.68,1.088.85.306.034,1.564.068.442,0,.442.272,0,.306-.578.306h-.408Q170.782,0,168.13,0q-.51,0-1.734.034h-2.89q-.748,0-.748-.306,0-.238.986-.272,1.6-.034,1.734-.408a3.309,3.309,0,0,0,.136-1.326V-21.046q0-1.36-.289-1.632a3.331,3.331,0,0,0-1.751-.306q-.85,0-.85-.306,0-.34.544-.34a2.046,2.046,0,0,1,.306.034l4.522.1q.68,0,1.9-.034,1.36-.068,1.9-.068a8.084,8.084,0,0,1,5.015,1.411,4.554,4.554,0,0,1,1.853,3.825,4.845,4.845,0,0,1-1.9,3.927,9.226,9.226,0,0,1-5.168,1.819q-.306.034-.34.1,0,.136.34.136,3.57.612,4.913,2.5T178.4-3.06q.272,2.788,1.9,2.788.51,0,.51-.2a.1.1,0,0,0-.034-.068,1.569,1.569,0,0,1-.17-.612q0-.714.748-.714Q182.172-1.87,182.172-1.02Zm-7.038-17.034q0-4.862-4.216-4.862a2.709,2.709,0,0,0-1.53.306,1.279,1.279,0,0,0-.408,1.088v8.636q3.264.034,4.709-1.19A4.944,4.944,0,0,0,175.134-18.054ZM201.076-5.508q0,.136-.068,1.666T200.94-.918V.2q-3.332-.17-13.192-.17-1.19,0-2.346.034h-1.9q-.646,0-.646-.306a.218.218,0,0,1,.2-.238q.1,0,1.292-.1.884-.068,1.071-.374a3.973,3.973,0,0,0,.187-1.6V-21.658q0-.986-.289-1.173a4.949,4.949,0,0,0-1.853-.187q-.544,0-.544-.306t.748-.306l5.814.034q.306,0,3.842-.034h4.76a11.875,11.875,0,0,0,1.87-.136q.068,1.462.306,4.046l.136,1.462a2.33,2.33,0,0,1,.034.442q0,.34-.306.34-.374,0-.544-.85-.646-3.06-2.108-3.876-1.088-.612-5.712-.612h-2.788v9.962h.816q3.808,0,4.641-.578t1.139-3.366q.068-.714.374-.714.374,0,.374.612t-.068,1.8q-.068,1.19-.068,1.8,0,3.638.136,5,.034.34.034.578,0,.442-.374.442-.238,0-.323-.289t-.289-1.887a2.7,2.7,0,0,0-1.666-2.482,14.175,14.175,0,0,0-3.2-.2h-1.53V-.714a64.808,64.808,0,0,0,8.772-.306q2.244-.51,2.55-4.352.068-.85.442-.85Q201.076-6.222,201.076-5.508Z" transform="translate(2369 62)"/></svg>