<svg xmlns="http://www.w3.org/2000/svg" viewBox="1270.188 59.42 73.307 30.932"><defs><style>.a{fill:#e8e5c8;}</style></defs><path class="a" d="M24.42-3.476q0,1.144-.132,3.784H23.8q-.264,0-1.276-.088T20.24.132L1.936,0q-.748,0-.748-.4,0-.308,1.188-.4a4.3,4.3,0,0,0,2-.374q.33-.286.33-1.65V-27.544q0-1.628-.33-1.892A5.532,5.532,0,0,0,2.024-29.7q-.836,0-.836-.484,0-.4.528-.4h.4q1.452.132,5.764.132.4,0,1.54-.066t1.892-.066h.484q.792,0,.792.44a.307.307,0,0,1-.242.33,10.625,10.625,0,0,1-1.518.11q-1.276.044-1.518.418a6.025,6.025,0,0,0-.242,2.31v25.96q1.188.044,3.3.044a34.08,34.08,0,0,0,7.26-.528,4.1,4.1,0,0,0,2.86-1.98,9.783,9.783,0,0,0,.88-3.916q.044-.572.528-.572.572,0,.528.66l-.044,1.1v.4a4.351,4.351,0,0,1,.044.616Zm24.156-8.492q0,.264-1.716.352-1.1.044-1.232.352,0,.044-.176.7l-.308,1.276a14.077,14.077,0,0,1-2.42,5.1q.264.44.836,1.32a4.744,4.744,0,0,0,1.452,1.826,6.987,6.987,0,0,0,2.64.374q.792,0,.792.4,0,.264-.484.264-.4,0-1.606-.044T44.088-.088q-1.5,0-2.464.088-.22-.308-1.1-1.848a9.412,9.412,0,0,1-6.512,2.2,8.24,8.24,0,0,1-5.17-1.54,4.822,4.822,0,0,1-2-4q0-3.96,5.5-6.424-1.364-1.364-1.584-1.54a3.616,3.616,0,0,1-1.188-2.6,4.175,4.175,0,0,1,1.518-3.322,5.847,5.847,0,0,1,3.938-1.3,6.014,6.014,0,0,1,3.718,1.078,3.305,3.305,0,0,1,1.43,2.75q0,2.816-4.356,4.356L37.268-10.6q1.8,1.936,4.708,5.456A11.06,11.06,0,0,0,44-11q0-.7-.572-.7h-.22a6.214,6.214,0,0,1-.836.044q-1.452,0-1.452-.352,0-.22.616-.264T45.8-12.32h2.068Q48.576-12.32,48.576-11.968ZM37.312-16.236a4.263,4.263,0,0,0-.7-2.53,2.131,2.131,0,0,0-1.8-.99,2.606,2.606,0,0,0-1.892.726,2.491,2.491,0,0,0-.748,1.87q0,2.068,3.168,4.488A3.55,3.55,0,0,0,37.312-16.236ZM40-2.684a54.245,54.245,0,0,0-7.128-8.36A5.44,5.44,0,0,0,30.36-6.38a5.886,5.886,0,0,0,1.408,4.026A4.534,4.534,0,0,0,35.332-.748,6.55,6.55,0,0,0,40-2.684Zm34.5-.792q0,1.144-.132,3.784h-.484Q73.612.308,72.6.22T70.312.132L52.008,0q-.748,0-.748-.4,0-.308,1.188-.4a4.3,4.3,0,0,0,2-.374q.33-.286.33-1.65V-27.544q0-1.628-.33-1.892A5.532,5.532,0,0,0,52.1-29.7q-.836,0-.836-.484,0-.4.528-.4h.4q1.452.132,5.764.132.4,0,1.54-.066t1.892-.066h.484q.792,0,.792.44a.307.307,0,0,1-.242.33,10.625,10.625,0,0,1-1.518.11q-1.276.044-1.518.418a6.025,6.025,0,0,0-.242,2.31v25.96q1.188.044,3.3.044A34.08,34.08,0,0,0,69.7-1.5a4.1,4.1,0,0,0,2.86-1.98,9.783,9.783,0,0,0,.88-3.916q.044-.572.528-.572.572,0,.528.66l-.044,1.1v.4a4.35,4.35,0,0,1,.044.616Z" transform="translate(1269 90)"/></svg>